<svg width="592" height="239" viewBox="0 0 592 239" fill="none" xmlns="http://www.w3.org/2000/svg">
<path d="M172.784 186.141H145.081V231H112.878V186.141H18.9406V160.688L112.878 24.8438H145.081V158.719H172.784V186.141ZM112.878 158.719V107.109C112.878 88.7344 113.347 73.6875 114.284 61.9688H113.159C110.534 68.1562 106.409 75.6562 100.784 84.4688L49.7375 158.719H112.878ZM573.341 186.141H545.637V231H513.434V186.141H419.497V160.688L513.434 24.8438H545.637V158.719H573.341V186.141ZM513.434 158.719V107.109C513.434 88.7344 513.903 73.6875 514.841 61.9688H513.716C511.091 68.1562 506.966 75.6562 501.341 84.4688L450.294 158.719H513.434Z" fill="#585858"/>
<circle cx="300.5" cy="126.5" r="104.5" fill="#585858"/>
<path d="M335.333 151.125C335.333 160.696 331.835 168.205 324.839 173.652C317.842 179.1 308.191 181.824 295.885 181.824C283.579 181.824 273.507 179.934 265.667 176.155V159.518C270.629 161.824 275.888 163.64 281.446 164.965C287.053 166.291 292.263 166.953 297.076 166.953C304.122 166.953 309.308 165.628 312.632 162.978C316.006 160.328 317.693 156.769 317.693 152.303C317.693 148.279 316.155 144.868 313.079 142.07C310.002 139.273 303.651 135.96 294.025 132.132C284.101 128.157 277.104 123.617 273.035 118.513C268.966 113.409 266.932 107.274 266.932 100.108C266.932 91.1271 270.157 84.0598 276.608 78.9066C283.058 73.7534 291.717 71.1768 302.584 71.1768C313.004 71.1768 323.375 73.4344 333.696 77.9496L328.039 92.305C318.363 88.2806 309.729 86.2683 302.137 86.2683C296.381 86.2683 292.015 87.5198 289.038 90.0228C286.06 92.4767 284.572 95.7405 284.572 99.814C284.572 102.611 285.167 105.016 286.358 107.028C287.549 108.992 289.509 110.857 292.238 112.623C294.967 114.39 299.88 116.721 306.975 119.617C314.964 122.905 320.819 125.973 324.541 128.819C328.262 131.666 330.992 134.88 332.728 138.463C334.465 142.046 335.333 146.267 335.333 151.125Z" fill="#F6F6F6"/>
</svg>
