<svg width="195" height="51" viewBox="0 0 195 51" fill="none" xmlns="http://www.w3.org/2000/svg">
<path d="M11.5195 17.123C11.5195 18.3926 11.0605 19.3887 10.1426 20.1113C9.22461 20.834 7.95833 21.1953 6.34375 21.1953C4.72917 21.1953 3.40755 20.9447 2.37891 20.4434V18.2363C3.02995 18.5423 3.72005 18.7832 4.44922 18.959C5.1849 19.1348 5.86849 19.2227 6.5 19.2227C7.42448 19.2227 8.10482 19.0469 8.54102 18.6953C8.98372 18.3438 9.20508 17.8717 9.20508 17.2793C9.20508 16.7454 9.00326 16.293 8.59961 15.9219C8.19596 15.5508 7.36263 15.1113 6.09961 14.6035C4.79753 14.0762 3.87956 13.474 3.3457 12.7969C2.81185 12.1198 2.54492 11.306 2.54492 10.3555C2.54492 9.16406 2.9681 8.22656 3.81445 7.54297C4.66081 6.85938 5.79688 6.51758 7.22266 6.51758C8.58984 6.51758 9.95052 6.81706 11.3047 7.41602L10.5625 9.32031C9.29297 8.78646 8.16016 8.51953 7.16406 8.51953C6.40885 8.51953 5.83594 8.68555 5.44531 9.01758C5.05469 9.3431 4.85938 9.77604 4.85938 10.3164C4.85938 10.6875 4.9375 11.0065 5.09375 11.2734C5.25 11.5339 5.50716 11.7812 5.86523 12.0156C6.22331 12.25 6.86784 12.5592 7.79883 12.9434C8.84701 13.3796 9.61523 13.7865 10.1035 14.1641C10.5918 14.5417 10.9499 14.9681 11.1777 15.4434C11.4056 15.9186 11.5195 16.4785 11.5195 17.123ZM24.3594 21H16.2832V6.72266H24.3594V8.69531H18.6172V12.582H23.998V14.5352H18.6172V19.0176H24.3594V21ZM31.7891 13.3633H33.4102C34.4974 13.3633 35.2852 13.1615 35.7734 12.7578C36.2617 12.3542 36.5059 11.7552 36.5059 10.9609C36.5059 10.1536 36.2422 9.57422 35.7148 9.22266C35.1875 8.87109 34.3932 8.69531 33.332 8.69531H31.7891V13.3633ZM31.7891 15.2969V21H29.4551V6.72266H33.4883C35.3307 6.72266 36.6947 7.06771 37.5801 7.75781C38.4655 8.44792 38.9082 9.48958 38.9082 10.8828C38.9082 12.6602 37.9837 13.9264 36.1348 14.6816L40.168 21H37.5117L34.0938 15.2969H31.7891ZM50.0879 13.2559H55.3418V20.4238C54.4824 20.7038 53.6556 20.9023 52.8613 21.0195C52.0736 21.1367 51.2207 21.1953 50.3027 21.1953C48.1413 21.1953 46.4746 20.5573 45.3027 19.2812C44.1309 17.9987 43.5449 16.1921 43.5449 13.8613C43.5449 11.5632 44.2057 9.76628 45.5273 8.4707C46.849 7.16862 48.6686 6.51758 50.9863 6.51758C52.4772 6.51758 53.89 6.80404 55.2246 7.37695L54.4043 9.32031C53.2454 8.78646 52.0866 8.51953 50.9277 8.51953C49.4043 8.51953 48.1999 8.99805 47.3145 9.95508C46.429 10.9121 45.9863 12.2207 45.9863 13.8809C45.9863 15.6257 46.3835 16.9538 47.1777 17.8652C47.9785 18.7702 49.1276 19.2227 50.625 19.2227C51.3802 19.2227 52.1875 19.1283 53.0469 18.9395V15.2578H50.0879V13.2559ZM68.8555 21H60.7793V6.72266H68.8555V8.69531H63.1133V12.582H68.4941V14.5352H63.1133V19.0176H68.8555V21ZM73.9512 21V6.72266H76.2852V21H73.9512ZM91.5742 21H89.2598V6.72266H97.3164V8.69531H91.5742V13.1582H96.9551V15.1406H91.5742V21ZM109.98 21H101.904V6.72266H109.98V8.69531H104.238V12.582H109.619V14.5352H104.238V19.0176H109.98V21ZM126.688 13.7246C126.688 16.0814 126.033 17.8848 124.725 19.1348C123.416 20.3783 121.531 21 119.07 21H115.076V6.72266H119.49C121.762 6.72266 123.53 7.33464 124.793 8.55859C126.056 9.78255 126.688 11.5046 126.688 13.7246ZM124.227 13.8027C124.227 10.3848 122.628 8.67578 119.432 8.67578H117.41V19.0371H119.07C122.508 19.0371 124.227 17.2923 124.227 13.8027ZM144.439 13.8418C144.439 16.166 143.857 17.9727 142.691 19.2617C141.533 20.5508 139.889 21.1953 137.76 21.1953C135.605 21.1953 133.948 20.5573 132.789 19.2812C131.637 17.9987 131.061 16.179 131.061 13.8223C131.061 11.4655 131.64 9.6556 132.799 8.39258C133.964 7.12956 135.624 6.49805 137.779 6.49805C139.902 6.49805 141.542 7.13932 142.701 8.42188C143.86 9.70443 144.439 11.5111 144.439 13.8418ZM133.541 13.8418C133.541 15.5996 133.896 16.9342 134.605 17.8457C135.315 18.7507 136.367 19.2031 137.76 19.2031C139.146 19.2031 140.191 18.7539 140.895 17.8555C141.604 16.957 141.959 15.6191 141.959 13.8418C141.959 12.0905 141.607 10.7624 140.904 9.85742C140.208 8.95247 139.166 8.5 137.779 8.5C136.38 8.5 135.322 8.95247 134.605 9.85742C133.896 10.7624 133.541 12.0905 133.541 13.8418ZM151.84 13.3633H153.461C154.548 13.3633 155.336 13.1615 155.824 12.7578C156.312 12.3542 156.557 11.7552 156.557 10.9609C156.557 10.1536 156.293 9.57422 155.766 9.22266C155.238 8.87109 154.444 8.69531 153.383 8.69531H151.84V13.3633ZM151.84 15.2969V21H149.506V6.72266H153.539C155.382 6.72266 156.745 7.06771 157.631 7.75781C158.516 8.44792 158.959 9.48958 158.959 10.8828C158.959 12.6602 158.035 13.9264 156.186 14.6816L160.219 21H157.562L154.145 15.2969H151.84ZM176.975 13.8418C176.975 16.166 176.392 17.9727 175.227 19.2617C174.068 20.5508 172.424 21.1953 170.295 21.1953C168.14 21.1953 166.483 20.5573 165.324 19.2812C164.172 17.9987 163.596 16.179 163.596 13.8223C163.596 11.4655 164.175 9.6556 165.334 8.39258C166.499 7.12956 168.16 6.49805 170.314 6.49805C172.437 6.49805 174.077 7.13932 175.236 8.42188C176.395 9.70443 176.975 11.5111 176.975 13.8418ZM166.076 13.8418C166.076 15.5996 166.431 16.9342 167.141 17.8457C167.85 18.7507 168.902 19.2031 170.295 19.2031C171.682 19.2031 172.727 18.7539 173.43 17.8555C174.139 16.957 174.494 15.6191 174.494 13.8418C174.494 12.0905 174.143 10.7624 173.439 9.85742C172.743 8.95247 171.701 8.5 170.314 8.5C168.915 8.5 167.857 8.95247 167.141 9.85742C166.431 10.7624 166.076 12.0905 166.076 13.8418ZM190.176 6.72266H192.598L187.598 21H185.137L180.156 6.72266H182.559L185.537 15.5996C185.693 16.0228 185.859 16.5697 186.035 17.2402C186.211 17.9043 186.325 18.3991 186.377 18.7246C186.462 18.2298 186.592 17.6569 186.768 17.0059C186.943 16.3548 187.087 15.873 187.197 15.5605L190.176 6.72266Z" fill="#B5B5B5"/>
<path d="M1.64844 46V34.5781H2.44531V45.25H7.89062V46H1.64844ZM11.4672 46V34.5781H12.2641V46H11.4672ZM23.4031 43.0547C23.4031 44.0078 23.0516 44.763 22.3484 45.3203C21.6505 45.8776 20.7208 46.1562 19.5594 46.1562C18.1635 46.1562 17.0932 46.0026 16.3484 45.6953V44.8984C17.1714 45.2474 18.2208 45.4219 19.4969 45.4219C20.4344 45.4219 21.1766 45.2083 21.7234 44.7812C22.2755 44.349 22.5516 43.7839 22.5516 43.0859C22.5516 42.6536 22.4604 42.2969 22.2781 42.0156C22.0958 41.7292 21.799 41.4688 21.3875 41.2344C20.976 41 20.3719 40.7474 19.575 40.4766C18.4083 40.0755 17.601 39.6432 17.1531 39.1797C16.7104 38.7109 16.4891 38.0885 16.4891 37.3125C16.4891 36.4583 16.8224 35.763 17.4891 35.2266C18.1609 34.6849 19.0229 34.4141 20.075 34.4141C21.1479 34.4141 22.1557 34.6172 23.0984 35.0234L22.8094 35.7109C21.8615 35.3151 20.9552 35.1172 20.0906 35.1172C19.2469 35.1172 18.575 35.3125 18.075 35.7031C17.575 36.0938 17.325 36.625 17.325 37.2969C17.325 37.7188 17.4005 38.0651 17.5516 38.3359C17.7078 38.6068 17.9604 38.8516 18.3094 39.0703C18.6583 39.2839 19.2573 39.5417 20.1062 39.8438C20.9969 40.151 21.6661 40.4505 22.1141 40.7422C22.562 41.0286 22.8875 41.3568 23.0906 41.7266C23.299 42.0911 23.4031 42.5339 23.4031 43.0547ZM27.4172 34.5781H30.55C31.9615 34.5781 32.9979 34.8177 33.6594 35.2969C34.3208 35.776 34.6516 36.5 34.6516 37.4688C34.6516 38.1302 34.4484 38.6823 34.0422 39.125C33.6411 39.5625 33.0526 39.8438 32.2766 39.9688V40.0156C33.188 40.151 33.8573 40.4401 34.2844 40.8828C34.7167 41.3203 34.9328 41.9323 34.9328 42.7188C34.9328 43.7708 34.5839 44.5807 33.8859 45.1484C33.188 45.7161 32.1984 46 30.9172 46H27.4172V34.5781ZM28.2141 39.6641H30.7297C31.8026 39.6641 32.5812 39.487 33.0656 39.1328C33.5552 38.7734 33.8 38.2135 33.8 37.4531C33.8 36.6927 33.524 36.1406 32.9719 35.7969C32.425 35.4531 31.6073 35.2812 30.5187 35.2812H28.2141V39.6641ZM28.2141 40.3672V45.2969H30.9016C33.0161 45.2969 34.0734 44.4375 34.0734 42.7188C34.0734 41.151 32.9589 40.3672 30.7297 40.3672H28.2141ZM48.65 40.2734C48.65 42.0859 48.1969 43.5208 47.2906 44.5781C46.3844 45.6302 45.1344 46.1562 43.5406 46.1562C41.9521 46.1562 40.7047 45.6302 39.7984 44.5781C38.8922 43.5208 38.4391 42.0807 38.4391 40.2578C38.4391 38.4401 38.8948 37.0104 39.8063 35.9688C40.7229 34.9219 41.9729 34.3984 43.5563 34.3984C45.15 34.3984 46.3974 34.9245 47.2984 35.9766C48.1995 37.0234 48.65 38.4557 48.65 40.2734ZM39.3063 40.2734C39.3063 41.9089 39.6708 43.1745 40.4 44.0703C41.1292 44.9609 42.176 45.4062 43.5406 45.4062C44.9156 45.4062 45.9651 44.9635 46.6891 44.0781C47.4182 43.1927 47.7828 41.9245 47.7828 40.2734C47.7828 38.6276 47.4182 37.3672 46.6891 36.4922C45.9651 35.612 44.9208 35.1719 43.5563 35.1719C42.1969 35.1719 41.1474 35.6146 40.4078 36.5C39.6734 37.3854 39.3063 38.6432 39.3063 40.2734ZM61.1875 46H60.3828L53.6172 35.8594H53.5547C53.6172 37.0677 53.6484 37.9792 53.6484 38.5938V46H52.8828V34.5781H53.6797L60.4375 44.7031H60.4844C60.4375 43.7656 60.4141 42.875 60.4141 42.0312V34.5781H61.1875V46ZM71.9734 40.1562C71.9734 39.6927 72.0776 39.3438 72.2859 39.1094C72.4995 38.8698 72.7964 38.75 73.1766 38.75C73.5568 38.75 73.851 38.8724 74.0594 39.1172C74.2729 39.362 74.3797 39.7083 74.3797 40.1562C74.3797 40.599 74.2729 40.9453 74.0594 41.1953C73.8458 41.4453 73.5516 41.5703 73.1766 41.5703C72.8016 41.5703 72.5073 41.4479 72.2937 41.2031C72.0802 40.9583 71.9734 40.6094 71.9734 40.1562ZM90.1813 46L85.9234 35.4531H85.8609C85.9026 36.099 85.9234 36.7604 85.9234 37.4375V46H85.1578V34.5781H86.3922L90.4391 44.625H90.4859L94.5328 34.5781H95.7359V46H94.9313V37.3438C94.9313 36.7396 94.9625 36.1146 95.025 35.4688H94.9625L90.6891 46H90.1813ZM110.172 40.2734C110.172 42.0859 109.719 43.5208 108.812 44.5781C107.906 45.6302 106.656 46.1562 105.062 46.1562C103.474 46.1562 102.227 45.6302 101.32 44.5781C100.414 43.5208 99.9609 42.0807 99.9609 40.2578C99.9609 38.4401 100.417 37.0104 101.328 35.9688C102.245 34.9219 103.495 34.3984 105.078 34.3984C106.672 34.3984 107.919 34.9245 108.82 35.9766C109.721 37.0234 110.172 38.4557 110.172 40.2734ZM100.828 40.2734C100.828 41.9089 101.193 43.1745 101.922 44.0703C102.651 44.9609 103.698 45.4062 105.062 45.4062C106.438 45.4062 107.487 44.9635 108.211 44.0781C108.94 43.1927 109.305 41.9245 109.305 40.2734C109.305 38.6276 108.94 37.3672 108.211 36.4922C107.487 35.612 106.443 35.1719 105.078 35.1719C103.719 35.1719 102.669 35.6146 101.93 36.5C101.195 37.3854 100.828 38.6432 100.828 40.2734ZM120.709 43.0547C120.709 44.0078 120.358 44.763 119.655 45.3203C118.957 45.8776 118.027 46.1562 116.866 46.1562C115.47 46.1562 114.399 46.0026 113.655 45.6953V44.8984C114.478 45.2474 115.527 45.4219 116.803 45.4219C117.741 45.4219 118.483 45.2083 119.03 44.7812C119.582 44.349 119.858 43.7839 119.858 43.0859C119.858 42.6536 119.767 42.2969 119.584 42.0156C119.402 41.7292 119.105 41.4688 118.694 41.2344C118.282 41 117.678 40.7474 116.881 40.4766C115.715 40.0755 114.907 39.6432 114.459 39.1797C114.017 38.7109 113.795 38.0885 113.795 37.3125C113.795 36.4583 114.129 35.763 114.795 35.2266C115.467 34.6849 116.329 34.4141 117.381 34.4141C118.454 34.4141 119.462 34.6172 120.405 35.0234L120.116 35.7109C119.168 35.3151 118.261 35.1172 117.397 35.1172C116.553 35.1172 115.881 35.3125 115.381 35.7031C114.881 36.0938 114.631 36.625 114.631 37.2969C114.631 37.7188 114.707 38.0651 114.858 38.3359C115.014 38.6068 115.267 38.8516 115.616 39.0703C115.965 39.2839 116.564 39.5417 117.412 39.8438C118.303 40.151 118.972 40.4505 119.42 40.7422C119.868 41.0286 120.194 41.3568 120.397 41.7266C120.605 42.0911 120.709 42.5339 120.709 43.0547ZM129.598 35.1328C128.166 35.1328 127.039 35.5911 126.216 36.5078C125.393 37.4245 124.981 38.6797 124.981 40.2734C124.981 41.9036 125.369 43.1693 126.145 44.0703C126.921 44.9714 128.031 45.4219 129.473 45.4219C130.432 45.4219 131.312 45.2995 132.114 45.0547V45.7578C131.359 46.0234 130.416 46.1562 129.286 46.1562C127.682 46.1562 126.419 45.638 125.497 44.6016C124.575 43.5651 124.114 42.1172 124.114 40.2578C124.114 39.0964 124.333 38.0729 124.77 37.1875C125.213 36.3021 125.846 35.6198 126.669 35.1406C127.497 34.6562 128.458 34.4141 129.552 34.4141C130.666 34.4141 131.664 34.6224 132.544 35.0391L132.223 35.7578C131.39 35.3411 130.515 35.1328 129.598 35.1328ZM145.863 40.2734C145.863 42.0859 145.409 43.5208 144.503 44.5781C143.597 45.6302 142.347 46.1562 140.753 46.1562C139.165 46.1562 137.917 45.6302 137.011 44.5781C136.105 43.5208 135.652 42.0807 135.652 40.2578C135.652 38.4401 136.107 37.0104 137.019 35.9688C137.935 34.9219 139.185 34.3984 140.769 34.3984C142.363 34.3984 143.61 34.9245 144.511 35.9766C145.412 37.0234 145.863 38.4557 145.863 40.2734ZM136.519 40.2734C136.519 41.9089 136.883 43.1745 137.613 44.0703C138.342 44.9609 139.389 45.4062 140.753 45.4062C142.128 45.4062 143.178 44.9635 143.902 44.0781C144.631 43.1927 144.995 41.9245 144.995 40.2734C144.995 38.6276 144.631 37.3672 143.902 36.4922C143.178 35.612 142.133 35.1719 140.769 35.1719C139.409 35.1719 138.36 35.6146 137.62 36.5C136.886 37.3854 136.519 38.6432 136.519 40.2734ZM159.197 46H158.541L156.033 37.1875C155.824 36.4635 155.668 35.8698 155.564 35.4062C155.481 35.8594 155.361 36.3802 155.205 36.9688C155.054 37.5573 154.215 40.5677 152.689 46H152.017L148.877 34.5781H149.712L151.712 41.9375C151.791 42.2344 151.864 42.5104 151.931 42.7656C151.999 43.0156 152.059 43.2526 152.111 43.4766C152.168 43.6953 152.218 43.9089 152.259 44.1172C152.306 44.3203 152.348 44.526 152.384 44.7344C152.509 44.026 152.775 42.9505 153.181 41.5078L155.134 34.5781H156.017L158.306 42.5312C158.572 43.4479 158.762 44.1875 158.877 44.75C158.944 44.375 159.03 43.9766 159.134 43.5547C159.244 43.1328 160.048 40.1406 161.548 34.5781H162.353L159.197 46Z" fill="#B5B5B5"/>
</svg>
