<svg width="214" height="56" viewBox="0 0 214 56" fill="none" xmlns="http://www.w3.org/2000/svg">
<path d="M19.5195 17.123C19.5195 18.3926 19.0605 19.3887 18.1426 20.1113C17.2246 20.834 15.9583 21.1953 14.3438 21.1953C12.7292 21.1953 11.4076 20.9447 10.3789 20.4434V18.2363C11.0299 18.5423 11.7201 18.7832 12.4492 18.959C13.1849 19.1348 13.8685 19.2227 14.5 19.2227C15.4245 19.2227 16.1048 19.0469 16.541 18.6953C16.9837 18.3438 17.2051 17.8717 17.2051 17.2793C17.2051 16.7454 17.0033 16.293 16.5996 15.9219C16.196 15.5508 15.3626 15.1113 14.0996 14.6035C12.7975 14.0762 11.8796 13.474 11.3457 12.7969C10.8118 12.1198 10.5449 11.306 10.5449 10.3555C10.5449 9.16406 10.9681 8.22656 11.8145 7.54297C12.6608 6.85938 13.7969 6.51758 15.2227 6.51758C16.5898 6.51758 17.9505 6.81706 19.3047 7.41602L18.5625 9.32031C17.293 8.78646 16.1602 8.51953 15.1641 8.51953C14.4089 8.51953 13.8359 8.68555 13.4453 9.01758C13.0547 9.3431 12.8594 9.77604 12.8594 10.3164C12.8594 10.6875 12.9375 11.0065 13.0938 11.2734C13.25 11.5339 13.5072 11.7812 13.8652 12.0156C14.2233 12.25 14.8678 12.5592 15.7988 12.9434C16.847 13.3796 17.6152 13.7865 18.1035 14.1641C18.5918 14.5417 18.9499 14.9681 19.1777 15.4434C19.4056 15.9186 19.5195 16.4785 19.5195 17.123ZM32.3594 21H24.2832V6.72266H32.3594V8.69531H26.6172V12.582H31.998V14.5352H26.6172V19.0176H32.3594V21ZM39.7891 13.3633H41.4102C42.4974 13.3633 43.2852 13.1615 43.7734 12.7578C44.2617 12.3542 44.5059 11.7552 44.5059 10.9609C44.5059 10.1536 44.2422 9.57422 43.7148 9.22266C43.1875 8.87109 42.3932 8.69531 41.332 8.69531H39.7891V13.3633ZM39.7891 15.2969V21H37.4551V6.72266H41.4883C43.3307 6.72266 44.6947 7.06771 45.5801 7.75781C46.4655 8.44792 46.9082 9.48958 46.9082 10.8828C46.9082 12.6602 45.9837 13.9264 44.1348 14.6816L48.168 21H45.5117L42.0938 15.2969H39.7891ZM58.0879 13.2559H63.3418V20.4238C62.4824 20.7038 61.6556 20.9023 60.8613 21.0195C60.0736 21.1367 59.2207 21.1953 58.3027 21.1953C56.1413 21.1953 54.4746 20.5573 53.3027 19.2812C52.1309 17.9987 51.5449 16.1921 51.5449 13.8613C51.5449 11.5632 52.2057 9.76628 53.5273 8.4707C54.849 7.16862 56.6686 6.51758 58.9863 6.51758C60.4772 6.51758 61.89 6.80404 63.2246 7.37695L62.4043 9.32031C61.2454 8.78646 60.0866 8.51953 58.9277 8.51953C57.4043 8.51953 56.1999 8.99805 55.3145 9.95508C54.429 10.9121 53.9863 12.2207 53.9863 13.8809C53.9863 15.6257 54.3835 16.9538 55.1777 17.8652C55.9785 18.7702 57.1276 19.2227 58.625 19.2227C59.3802 19.2227 60.1875 19.1283 61.0469 18.9395V15.2578H58.0879V13.2559ZM76.8555 21H68.7793V6.72266H76.8555V8.69531H71.1133V12.582H76.4941V14.5352H71.1133V19.0176H76.8555V21ZM81.9512 21V6.72266H84.2852V21H81.9512ZM99.5742 21H97.2598V6.72266H105.316V8.69531H99.5742V13.1582H104.955V15.1406H99.5742V21ZM117.98 21H109.904V6.72266H117.98V8.69531H112.238V12.582H117.619V14.5352H112.238V19.0176H117.98V21ZM134.688 13.7246C134.688 16.0814 134.033 17.8848 132.725 19.1348C131.416 20.3783 129.531 21 127.07 21H123.076V6.72266H127.49C129.762 6.72266 131.53 7.33464 132.793 8.55859C134.056 9.78255 134.688 11.5046 134.688 13.7246ZM132.227 13.8027C132.227 10.3848 130.628 8.67578 127.432 8.67578H125.41V19.0371H127.07C130.508 19.0371 132.227 17.2923 132.227 13.8027ZM152.439 13.8418C152.439 16.166 151.857 17.9727 150.691 19.2617C149.533 20.5508 147.889 21.1953 145.76 21.1953C143.605 21.1953 141.948 20.5573 140.789 19.2812C139.637 17.9987 139.061 16.179 139.061 13.8223C139.061 11.4655 139.64 9.6556 140.799 8.39258C141.964 7.12956 143.624 6.49805 145.779 6.49805C147.902 6.49805 149.542 7.13932 150.701 8.42188C151.86 9.70443 152.439 11.5111 152.439 13.8418ZM141.541 13.8418C141.541 15.5996 141.896 16.9342 142.605 17.8457C143.315 18.7507 144.367 19.2031 145.76 19.2031C147.146 19.2031 148.191 18.7539 148.895 17.8555C149.604 16.957 149.959 15.6191 149.959 13.8418C149.959 12.0905 149.607 10.7624 148.904 9.85742C148.208 8.95247 147.166 8.5 145.779 8.5C144.38 8.5 143.322 8.95247 142.605 9.85742C141.896 10.7624 141.541 12.0905 141.541 13.8418ZM159.84 13.3633H161.461C162.548 13.3633 163.336 13.1615 163.824 12.7578C164.312 12.3542 164.557 11.7552 164.557 10.9609C164.557 10.1536 164.293 9.57422 163.766 9.22266C163.238 8.87109 162.444 8.69531 161.383 8.69531H159.84V13.3633ZM159.84 15.2969V21H157.506V6.72266H161.539C163.382 6.72266 164.745 7.06771 165.631 7.75781C166.516 8.44792 166.959 9.48958 166.959 10.8828C166.959 12.6602 166.035 13.9264 164.186 14.6816L168.219 21H165.562L162.145 15.2969H159.84ZM184.975 13.8418C184.975 16.166 184.392 17.9727 183.227 19.2617C182.068 20.5508 180.424 21.1953 178.295 21.1953C176.14 21.1953 174.483 20.5573 173.324 19.2812C172.172 17.9987 171.596 16.179 171.596 13.8223C171.596 11.4655 172.175 9.6556 173.334 8.39258C174.499 7.12956 176.16 6.49805 178.314 6.49805C180.437 6.49805 182.077 7.13932 183.236 8.42188C184.395 9.70443 184.975 11.5111 184.975 13.8418ZM174.076 13.8418C174.076 15.5996 174.431 16.9342 175.141 17.8457C175.85 18.7507 176.902 19.2031 178.295 19.2031C179.682 19.2031 180.727 18.7539 181.43 17.8555C182.139 16.957 182.494 15.6191 182.494 13.8418C182.494 12.0905 182.143 10.7624 181.439 9.85742C180.743 8.95247 179.701 8.5 178.314 8.5C176.915 8.5 175.857 8.95247 175.141 9.85742C174.431 10.7624 174.076 12.0905 174.076 13.8418ZM198.176 6.72266H200.598L195.598 21H193.137L188.156 6.72266H190.559L193.537 15.5996C193.693 16.0228 193.859 16.5697 194.035 17.2402C194.211 17.9043 194.325 18.3991 194.377 18.7246C194.462 18.2298 194.592 17.6569 194.768 17.0059C194.943 16.3548 195.087 15.873 195.197 15.5605L198.176 6.72266Z" fill="#F6F6F6"/>
<path d="M21.6407 48V36.5781H22.4375V47.25H27.8829V48H21.6407ZM31.4594 48V36.5781H32.2563V48H31.4594ZM43.3954 45.0547C43.3954 46.0078 43.0438 46.763 42.3407 47.3203C41.6427 47.8776 40.7131 48.1562 39.5516 48.1562C38.1558 48.1562 37.0855 48.0026 36.3407 47.6953V46.8984C37.1636 47.2474 38.2131 47.4219 39.4891 47.4219C40.4266 47.4219 41.1688 47.2083 41.7157 46.7812C42.2677 46.349 42.5438 45.7839 42.5438 45.0859C42.5438 44.6536 42.4526 44.2969 42.2704 44.0156C42.0881 43.7292 41.7912 43.4688 41.3797 43.2344C40.9683 43 40.3641 42.7474 39.5672 42.4766C38.4006 42.0755 37.5933 41.6432 37.1454 41.1797C36.7026 40.7109 36.4813 40.0885 36.4813 39.3125C36.4813 38.4583 36.8146 37.763 37.4813 37.2266C38.1532 36.6849 39.0151 36.4141 40.0672 36.4141C41.1401 36.4141 42.148 36.6172 43.0907 37.0234L42.8016 37.7109C41.8537 37.3151 40.9474 37.1172 40.0829 37.1172C39.2391 37.1172 38.5672 37.3125 38.0672 37.7031C37.5672 38.0938 37.3172 38.625 37.3172 39.2969C37.3172 39.7188 37.3927 40.0651 37.5438 40.3359C37.7 40.6068 37.9526 40.8516 38.3016 41.0703C38.6506 41.2839 39.2495 41.5417 40.0985 41.8438C40.9891 42.151 41.6584 42.4505 42.1063 42.7422C42.5542 43.0286 42.8797 43.3568 43.0829 43.7266C43.2912 44.0911 43.3954 44.5339 43.3954 45.0547ZM47.4094 36.5781H50.5422C51.9537 36.5781 52.9901 36.8177 53.6516 37.2969C54.3131 37.776 54.6438 38.5 54.6438 39.4688C54.6438 40.1302 54.4407 40.6823 54.0344 41.125C53.6334 41.5625 53.0448 41.8438 52.2688 41.9688V42.0156C53.1802 42.151 53.8495 42.4401 54.2766 42.8828C54.7089 43.3203 54.925 43.9323 54.925 44.7188C54.925 45.7708 54.5761 46.5807 53.8782 47.1484C53.1802 47.7161 52.1907 48 50.9094 48H47.4094V36.5781ZM48.2063 41.6641H50.7219C51.7948 41.6641 52.5735 41.487 53.0578 41.1328C53.5474 40.7734 53.7922 40.2135 53.7922 39.4531C53.7922 38.6927 53.5162 38.1406 52.9641 37.7969C52.4172 37.4531 51.5995 37.2812 50.511 37.2812H48.2063V41.6641ZM48.2063 42.3672V47.2969H50.8938C53.0084 47.2969 54.0657 46.4375 54.0657 44.7188C54.0657 43.151 52.9511 42.3672 50.7219 42.3672H48.2063ZM68.6422 42.2734C68.6422 44.0859 68.1891 45.5208 67.2829 46.5781C66.3766 47.6302 65.1266 48.1562 63.5329 48.1562C61.9443 48.1562 60.6969 47.6302 59.7907 46.5781C58.8844 45.5208 58.4313 44.0807 58.4313 42.2578C58.4313 40.4401 58.887 39.0104 59.7985 37.9688C60.7151 36.9219 61.9651 36.3984 63.5485 36.3984C65.1422 36.3984 66.3896 36.9245 67.2907 37.9766C68.1917 39.0234 68.6422 40.4557 68.6422 42.2734ZM59.2985 42.2734C59.2985 43.9089 59.6631 45.1745 60.3922 46.0703C61.1214 46.9609 62.1683 47.4062 63.5329 47.4062C64.9079 47.4062 65.9573 46.9635 66.6813 46.0781C67.4105 45.1927 67.775 43.9245 67.775 42.2734C67.775 40.6276 67.4105 39.3672 66.6813 38.4922C65.9573 37.612 64.9131 37.1719 63.5485 37.1719C62.1891 37.1719 61.1396 37.6146 60.4 38.5C59.6657 39.3854 59.2985 40.6432 59.2985 42.2734ZM81.1797 48H80.375L73.6094 37.8594H73.5469C73.6094 39.0677 73.6407 39.9792 73.6407 40.5938V48H72.875V36.5781H73.6719L80.4297 46.7031H80.4766C80.4297 45.7656 80.4063 44.875 80.4063 44.0312V36.5781H81.1797V48ZM91.9657 42.1562C91.9657 41.6927 92.0698 41.3438 92.2782 41.1094C92.4917 40.8698 92.7886 40.75 93.1688 40.75C93.549 40.75 93.8433 40.8724 94.0516 41.1172C94.2651 41.362 94.3719 41.7083 94.3719 42.1562C94.3719 42.599 94.2651 42.9453 94.0516 43.1953C93.8381 43.4453 93.5438 43.5703 93.1688 43.5703C92.7938 43.5703 92.4995 43.4479 92.286 43.2031C92.0724 42.9583 91.9657 42.6094 91.9657 42.1562ZM110.173 48L105.916 37.4531H105.853C105.895 38.099 105.916 38.7604 105.916 39.4375V48H105.15V36.5781H106.384L110.431 46.625H110.478L114.525 36.5781H115.728V48H114.923V39.3438C114.923 38.7396 114.955 38.1146 115.017 37.4688H114.955L110.681 48H110.173ZM130.164 42.2734C130.164 44.0859 129.711 45.5208 128.805 46.5781C127.898 47.6302 126.648 48.1562 125.055 48.1562C123.466 48.1562 122.219 47.6302 121.313 46.5781C120.406 45.5208 119.953 44.0807 119.953 42.2578C119.953 40.4401 120.409 39.0104 121.32 37.9688C122.237 36.9219 123.487 36.3984 125.07 36.3984C126.664 36.3984 127.911 36.9245 128.813 37.9766C129.714 39.0234 130.164 40.4557 130.164 42.2734ZM120.82 42.2734C120.82 43.9089 121.185 45.1745 121.914 46.0703C122.643 46.9609 123.69 47.4062 125.055 47.4062C126.43 47.4062 127.479 46.9635 128.203 46.0781C128.932 45.1927 129.297 43.9245 129.297 42.2734C129.297 40.6276 128.932 39.3672 128.203 38.4922C127.479 37.612 126.435 37.1719 125.07 37.1719C123.711 37.1719 122.661 37.6146 121.922 38.5C121.188 39.3854 120.82 40.6432 120.82 42.2734ZM140.702 45.0547C140.702 46.0078 140.35 46.763 139.647 47.3203C138.949 47.8776 138.019 48.1562 136.858 48.1562C135.462 48.1562 134.392 48.0026 133.647 47.6953V46.8984C134.47 47.2474 135.519 47.4219 136.795 47.4219C137.733 47.4219 138.475 47.2083 139.022 46.7812C139.574 46.349 139.85 45.7839 139.85 45.0859C139.85 44.6536 139.759 44.2969 139.577 44.0156C139.394 43.7292 139.097 43.4688 138.686 43.2344C138.275 43 137.67 42.7474 136.873 42.4766C135.707 42.0755 134.9 41.6432 134.452 41.1797C134.009 40.7109 133.788 40.0885 133.788 39.3125C133.788 38.4583 134.121 37.763 134.788 37.2266C135.459 36.6849 136.321 36.4141 137.373 36.4141C138.446 36.4141 139.454 36.6172 140.397 37.0234L140.108 37.7109C139.16 37.3151 138.254 37.1172 137.389 37.1172C136.545 37.1172 135.873 37.3125 135.373 37.7031C134.873 38.0938 134.623 38.625 134.623 39.2969C134.623 39.7188 134.699 40.0651 134.85 40.3359C135.006 40.6068 135.259 40.8516 135.608 41.0703C135.957 41.2839 136.556 41.5417 137.405 41.8438C138.295 42.151 138.965 42.4505 139.413 42.7422C139.86 43.0286 140.186 43.3568 140.389 43.7266C140.597 44.0911 140.702 44.5339 140.702 45.0547ZM149.591 37.1328C148.158 37.1328 147.031 37.5911 146.208 38.5078C145.385 39.4245 144.973 40.6797 144.973 42.2734C144.973 43.9036 145.362 45.1693 146.138 46.0703C146.914 46.9714 148.023 47.4219 149.466 47.4219C150.424 47.4219 151.304 47.2995 152.106 47.0547V47.7578C151.351 48.0234 150.408 48.1562 149.278 48.1562C147.674 48.1562 146.411 47.638 145.489 46.6016C144.567 45.5651 144.106 44.1172 144.106 42.2578C144.106 41.0964 144.325 40.0729 144.763 39.1875C145.205 38.3021 145.838 37.6198 146.661 37.1406C147.489 36.6562 148.45 36.4141 149.544 36.4141C150.658 36.4141 151.656 36.6224 152.536 37.0391L152.216 37.7578C151.382 37.3411 150.507 37.1328 149.591 37.1328ZM165.855 42.2734C165.855 44.0859 165.402 45.5208 164.495 46.5781C163.589 47.6302 162.339 48.1562 160.745 48.1562C159.157 48.1562 157.909 47.6302 157.003 46.5781C156.097 45.5208 155.644 44.0807 155.644 42.2578C155.644 40.4401 156.1 39.0104 157.011 37.9688C157.928 36.9219 159.178 36.3984 160.761 36.3984C162.355 36.3984 163.602 36.9245 164.503 37.9766C165.404 39.0234 165.855 40.4557 165.855 42.2734ZM156.511 42.2734C156.511 43.9089 156.876 45.1745 157.605 46.0703C158.334 46.9609 159.381 47.4062 160.745 47.4062C162.12 47.4062 163.17 46.9635 163.894 46.0781C164.623 45.1927 164.988 43.9245 164.988 42.2734C164.988 40.6276 164.623 39.3672 163.894 38.4922C163.17 37.612 162.126 37.1719 160.761 37.1719C159.402 37.1719 158.352 37.6146 157.613 38.5C156.878 39.3854 156.511 40.6432 156.511 42.2734ZM179.189 48H178.533L176.025 39.1875C175.817 38.4635 175.66 37.8698 175.556 37.4062C175.473 37.8594 175.353 38.3802 175.197 38.9688C175.046 39.5573 174.207 42.5677 172.681 48H172.009L168.869 36.5781H169.705L171.705 43.9375C171.783 44.2344 171.856 44.5104 171.923 44.7656C171.991 45.0156 172.051 45.2526 172.103 45.4766C172.16 45.6953 172.21 45.9089 172.252 46.1172C172.298 46.3203 172.34 46.526 172.377 46.7344C172.502 46.026 172.767 44.9505 173.173 43.5078L175.127 36.5781H176.009L178.298 44.5312C178.564 45.4479 178.754 46.1875 178.869 46.75C178.936 46.375 179.022 45.9766 179.127 45.5547C179.236 45.1328 180.041 42.1406 181.541 36.5781H182.345L179.189 48Z" fill="#F6F6F6"/>
</svg>
