<svg width="194" height="52" viewBox="0 0 194 52" fill="none" xmlns="http://www.w3.org/2000/svg">
<path d="M10.5195 17.123C10.5195 18.3926 10.0605 19.3887 9.14258 20.1113C8.22461 20.834 6.95833 21.1953 5.34375 21.1953C3.72917 21.1953 2.40755 20.9447 1.37891 20.4434V18.2363C2.02995 18.5423 2.72005 18.7832 3.44922 18.959C4.1849 19.1348 4.86849 19.2227 5.5 19.2227C6.42448 19.2227 7.10482 19.0469 7.54102 18.6953C7.98372 18.3438 8.20508 17.8717 8.20508 17.2793C8.20508 16.7454 8.00326 16.293 7.59961 15.9219C7.19596 15.5508 6.36263 15.1113 5.09961 14.6035C3.79753 14.0762 2.87956 13.474 2.3457 12.7969C1.81185 12.1198 1.54492 11.306 1.54492 10.3555C1.54492 9.16406 1.9681 8.22656 2.81445 7.54297C3.66081 6.85938 4.79688 6.51758 6.22266 6.51758C7.58984 6.51758 8.95052 6.81706 10.3047 7.41602L9.5625 9.32031C8.29297 8.78646 7.16016 8.51953 6.16406 8.51953C5.40885 8.51953 4.83594 8.68555 4.44531 9.01758C4.05469 9.3431 3.85938 9.77604 3.85938 10.3164C3.85938 10.6875 3.9375 11.0065 4.09375 11.2734C4.25 11.5339 4.50716 11.7812 4.86523 12.0156C5.22331 12.25 5.86784 12.5592 6.79883 12.9434C7.84701 13.3796 8.61523 13.7865 9.10352 14.1641C9.5918 14.5417 9.94987 14.9681 10.1777 15.4434C10.4056 15.9186 10.5195 16.4785 10.5195 17.123ZM23.3594 21H15.2832V6.72266H23.3594V8.69531H17.6172V12.582H22.998V14.5352H17.6172V19.0176H23.3594V21ZM30.7891 13.3633H32.4102C33.4974 13.3633 34.2852 13.1615 34.7734 12.7578C35.2617 12.3542 35.5059 11.7552 35.5059 10.9609C35.5059 10.1536 35.2422 9.57422 34.7148 9.22266C34.1875 8.87109 33.3932 8.69531 32.332 8.69531H30.7891V13.3633ZM30.7891 15.2969V21H28.4551V6.72266H32.4883C34.3307 6.72266 35.6947 7.06771 36.5801 7.75781C37.4655 8.44792 37.9082 9.48958 37.9082 10.8828C37.9082 12.6602 36.9837 13.9264 35.1348 14.6816L39.168 21H36.5117L33.0938 15.2969H30.7891ZM49.0879 13.2559H54.3418V20.4238C53.4824 20.7038 52.6556 20.9023 51.8613 21.0195C51.0736 21.1367 50.2207 21.1953 49.3027 21.1953C47.1413 21.1953 45.4746 20.5573 44.3027 19.2812C43.1309 17.9987 42.5449 16.1921 42.5449 13.8613C42.5449 11.5632 43.2057 9.76628 44.5273 8.4707C45.849 7.16862 47.6686 6.51758 49.9863 6.51758C51.4772 6.51758 52.89 6.80404 54.2246 7.37695L53.4043 9.32031C52.2454 8.78646 51.0866 8.51953 49.9277 8.51953C48.4043 8.51953 47.1999 8.99805 46.3145 9.95508C45.429 10.9121 44.9863 12.2207 44.9863 13.8809C44.9863 15.6257 45.3835 16.9538 46.1777 17.8652C46.9785 18.7702 48.1276 19.2227 49.625 19.2227C50.3802 19.2227 51.1875 19.1283 52.0469 18.9395V15.2578H49.0879V13.2559ZM67.8555 21H59.7793V6.72266H67.8555V8.69531H62.1133V12.582H67.4941V14.5352H62.1133V19.0176H67.8555V21ZM72.9512 21V6.72266H75.2852V21H72.9512ZM90.5742 21H88.2598V6.72266H96.3164V8.69531H90.5742V13.1582H95.9551V15.1406H90.5742V21ZM108.98 21H100.904V6.72266H108.98V8.69531H103.238V12.582H108.619V14.5352H103.238V19.0176H108.98V21ZM125.688 13.7246C125.688 16.0814 125.033 17.8848 123.725 19.1348C122.416 20.3783 120.531 21 118.07 21H114.076V6.72266H118.49C120.762 6.72266 122.53 7.33464 123.793 8.55859C125.056 9.78255 125.688 11.5046 125.688 13.7246ZM123.227 13.8027C123.227 10.3848 121.628 8.67578 118.432 8.67578H116.41V19.0371H118.07C121.508 19.0371 123.227 17.2923 123.227 13.8027ZM143.439 13.8418C143.439 16.166 142.857 17.9727 141.691 19.2617C140.533 20.5508 138.889 21.1953 136.76 21.1953C134.605 21.1953 132.948 20.5573 131.789 19.2812C130.637 17.9987 130.061 16.179 130.061 13.8223C130.061 11.4655 130.64 9.6556 131.799 8.39258C132.964 7.12956 134.624 6.49805 136.779 6.49805C138.902 6.49805 140.542 7.13932 141.701 8.42188C142.86 9.70443 143.439 11.5111 143.439 13.8418ZM132.541 13.8418C132.541 15.5996 132.896 16.9342 133.605 17.8457C134.315 18.7507 135.367 19.2031 136.76 19.2031C138.146 19.2031 139.191 18.7539 139.895 17.8555C140.604 16.957 140.959 15.6191 140.959 13.8418C140.959 12.0905 140.607 10.7624 139.904 9.85742C139.208 8.95247 138.166 8.5 136.779 8.5C135.38 8.5 134.322 8.95247 133.605 9.85742C132.896 10.7624 132.541 12.0905 132.541 13.8418ZM150.84 13.3633H152.461C153.548 13.3633 154.336 13.1615 154.824 12.7578C155.312 12.3542 155.557 11.7552 155.557 10.9609C155.557 10.1536 155.293 9.57422 154.766 9.22266C154.238 8.87109 153.444 8.69531 152.383 8.69531H150.84V13.3633ZM150.84 15.2969V21H148.506V6.72266H152.539C154.382 6.72266 155.745 7.06771 156.631 7.75781C157.516 8.44792 157.959 9.48958 157.959 10.8828C157.959 12.6602 157.035 13.9264 155.186 14.6816L159.219 21H156.562L153.145 15.2969H150.84ZM175.975 13.8418C175.975 16.166 175.392 17.9727 174.227 19.2617C173.068 20.5508 171.424 21.1953 169.295 21.1953C167.14 21.1953 165.483 20.5573 164.324 19.2812C163.172 17.9987 162.596 16.179 162.596 13.8223C162.596 11.4655 163.175 9.6556 164.334 8.39258C165.499 7.12956 167.16 6.49805 169.314 6.49805C171.437 6.49805 173.077 7.13932 174.236 8.42188C175.395 9.70443 175.975 11.5111 175.975 13.8418ZM165.076 13.8418C165.076 15.5996 165.431 16.9342 166.141 17.8457C166.85 18.7507 167.902 19.2031 169.295 19.2031C170.682 19.2031 171.727 18.7539 172.43 17.8555C173.139 16.957 173.494 15.6191 173.494 13.8418C173.494 12.0905 173.143 10.7624 172.439 9.85742C171.743 8.95247 170.701 8.5 169.314 8.5C167.915 8.5 166.857 8.95247 166.141 9.85742C165.431 10.7624 165.076 12.0905 165.076 13.8418ZM189.176 6.72266H191.598L186.598 21H184.137L179.156 6.72266H181.559L184.537 15.5996C184.693 16.0228 184.859 16.5697 185.035 17.2402C185.211 17.9043 185.325 18.3991 185.377 18.7246C185.462 18.2298 185.592 17.6569 185.768 17.0059C185.943 16.3548 186.087 15.873 186.197 15.5605L189.176 6.72266Z" fill="#585858"/>
<path d="M2.64844 47V35.5781H3.44531V46.25H8.89062V47H2.64844ZM12.4672 47V35.5781H13.2641V47H12.4672ZM24.4031 44.0547C24.4031 45.0078 24.0516 45.763 23.3484 46.3203C22.6505 46.8776 21.7208 47.1562 20.5594 47.1562C19.1635 47.1562 18.0932 47.0026 17.3484 46.6953V45.8984C18.1714 46.2474 19.2208 46.4219 20.4969 46.4219C21.4344 46.4219 22.1766 46.2083 22.7234 45.7812C23.2755 45.349 23.5516 44.7839 23.5516 44.0859C23.5516 43.6536 23.4604 43.2969 23.2781 43.0156C23.0958 42.7292 22.799 42.4688 22.3875 42.2344C21.976 42 21.3719 41.7474 20.575 41.4766C19.4083 41.0755 18.601 40.6432 18.1531 40.1797C17.7104 39.7109 17.4891 39.0885 17.4891 38.3125C17.4891 37.4583 17.8224 36.763 18.4891 36.2266C19.1609 35.6849 20.0229 35.4141 21.075 35.4141C22.1479 35.4141 23.1557 35.6172 24.0984 36.0234L23.8094 36.7109C22.8615 36.3151 21.9552 36.1172 21.0906 36.1172C20.2469 36.1172 19.575 36.3125 19.075 36.7031C18.575 37.0938 18.325 37.625 18.325 38.2969C18.325 38.7188 18.4005 39.0651 18.5516 39.3359C18.7078 39.6068 18.9604 39.8516 19.3094 40.0703C19.6583 40.2839 20.2573 40.5417 21.1062 40.8438C21.9969 41.151 22.6661 41.4505 23.1141 41.7422C23.562 42.0286 23.8875 42.3568 24.0906 42.7266C24.299 43.0911 24.4031 43.5339 24.4031 44.0547ZM28.4172 35.5781H31.55C32.9615 35.5781 33.9979 35.8177 34.6594 36.2969C35.3208 36.776 35.6516 37.5 35.6516 38.4688C35.6516 39.1302 35.4484 39.6823 35.0422 40.125C34.6411 40.5625 34.0526 40.8438 33.2766 40.9688V41.0156C34.188 41.151 34.8573 41.4401 35.2844 41.8828C35.7167 42.3203 35.9328 42.9323 35.9328 43.7188C35.9328 44.7708 35.5839 45.5807 34.8859 46.1484C34.188 46.7161 33.1984 47 31.9172 47H28.4172V35.5781ZM29.2141 40.6641H31.7297C32.8026 40.6641 33.5812 40.487 34.0656 40.1328C34.5552 39.7734 34.8 39.2135 34.8 38.4531C34.8 37.6927 34.524 37.1406 33.9719 36.7969C33.425 36.4531 32.6073 36.2812 31.5187 36.2812H29.2141V40.6641ZM29.2141 41.3672V46.2969H31.9016C34.0161 46.2969 35.0734 45.4375 35.0734 43.7188C35.0734 42.151 33.9589 41.3672 31.7297 41.3672H29.2141ZM49.65 41.2734C49.65 43.0859 49.1969 44.5208 48.2906 45.5781C47.3844 46.6302 46.1344 47.1562 44.5406 47.1562C42.9521 47.1562 41.7047 46.6302 40.7984 45.5781C39.8922 44.5208 39.4391 43.0807 39.4391 41.2578C39.4391 39.4401 39.8948 38.0104 40.8063 36.9688C41.7229 35.9219 42.9729 35.3984 44.5563 35.3984C46.15 35.3984 47.3974 35.9245 48.2984 36.9766C49.1995 38.0234 49.65 39.4557 49.65 41.2734ZM40.3063 41.2734C40.3063 42.9089 40.6708 44.1745 41.4 45.0703C42.1292 45.9609 43.176 46.4062 44.5406 46.4062C45.9156 46.4062 46.9651 45.9635 47.6891 45.0781C48.4182 44.1927 48.7828 42.9245 48.7828 41.2734C48.7828 39.6276 48.4182 38.3672 47.6891 37.4922C46.9651 36.612 45.9208 36.1719 44.5563 36.1719C43.1969 36.1719 42.1474 36.6146 41.4078 37.5C40.6734 38.3854 40.3063 39.6432 40.3063 41.2734ZM62.1875 47H61.3828L54.6172 36.8594H54.5547C54.6172 38.0677 54.6484 38.9792 54.6484 39.5938V47H53.8828V35.5781H54.6797L61.4375 45.7031H61.4844C61.4375 44.7656 61.4141 43.875 61.4141 43.0312V35.5781H62.1875V47ZM72.9734 41.1562C72.9734 40.6927 73.0776 40.3438 73.2859 40.1094C73.4995 39.8698 73.7964 39.75 74.1766 39.75C74.5568 39.75 74.851 39.8724 75.0594 40.1172C75.2729 40.362 75.3797 40.7083 75.3797 41.1562C75.3797 41.599 75.2729 41.9453 75.0594 42.1953C74.8458 42.4453 74.5516 42.5703 74.1766 42.5703C73.8016 42.5703 73.5073 42.4479 73.2937 42.2031C73.0802 41.9583 72.9734 41.6094 72.9734 41.1562ZM91.1813 47L86.9234 36.4531H86.8609C86.9026 37.099 86.9234 37.7604 86.9234 38.4375V47H86.1578V35.5781H87.3922L91.4391 45.625H91.4859L95.5328 35.5781H96.7359V47H95.9313V38.3438C95.9313 37.7396 95.9625 37.1146 96.025 36.4688H95.9625L91.6891 47H91.1813ZM111.172 41.2734C111.172 43.0859 110.719 44.5208 109.812 45.5781C108.906 46.6302 107.656 47.1562 106.062 47.1562C104.474 47.1562 103.227 46.6302 102.32 45.5781C101.414 44.5208 100.961 43.0807 100.961 41.2578C100.961 39.4401 101.417 38.0104 102.328 36.9688C103.245 35.9219 104.495 35.3984 106.078 35.3984C107.672 35.3984 108.919 35.9245 109.82 36.9766C110.721 38.0234 111.172 39.4557 111.172 41.2734ZM101.828 41.2734C101.828 42.9089 102.193 44.1745 102.922 45.0703C103.651 45.9609 104.698 46.4062 106.062 46.4062C107.438 46.4062 108.487 45.9635 109.211 45.0781C109.94 44.1927 110.305 42.9245 110.305 41.2734C110.305 39.6276 109.94 38.3672 109.211 37.4922C108.487 36.612 107.443 36.1719 106.078 36.1719C104.719 36.1719 103.669 36.6146 102.93 37.5C102.195 38.3854 101.828 39.6432 101.828 41.2734ZM121.709 44.0547C121.709 45.0078 121.358 45.763 120.655 46.3203C119.957 46.8776 119.027 47.1562 117.866 47.1562C116.47 47.1562 115.399 47.0026 114.655 46.6953V45.8984C115.478 46.2474 116.527 46.4219 117.803 46.4219C118.741 46.4219 119.483 46.2083 120.03 45.7812C120.582 45.349 120.858 44.7839 120.858 44.0859C120.858 43.6536 120.767 43.2969 120.584 43.0156C120.402 42.7292 120.105 42.4688 119.694 42.2344C119.282 42 118.678 41.7474 117.881 41.4766C116.715 41.0755 115.907 40.6432 115.459 40.1797C115.017 39.7109 114.795 39.0885 114.795 38.3125C114.795 37.4583 115.129 36.763 115.795 36.2266C116.467 35.6849 117.329 35.4141 118.381 35.4141C119.454 35.4141 120.462 35.6172 121.405 36.0234L121.116 36.7109C120.168 36.3151 119.261 36.1172 118.397 36.1172C117.553 36.1172 116.881 36.3125 116.381 36.7031C115.881 37.0938 115.631 37.625 115.631 38.2969C115.631 38.7188 115.707 39.0651 115.858 39.3359C116.014 39.6068 116.267 39.8516 116.616 40.0703C116.965 40.2839 117.564 40.5417 118.412 40.8438C119.303 41.151 119.972 41.4505 120.42 41.7422C120.868 42.0286 121.194 42.3568 121.397 42.7266C121.605 43.0911 121.709 43.5339 121.709 44.0547ZM130.598 36.1328C129.166 36.1328 128.039 36.5911 127.216 37.5078C126.393 38.4245 125.981 39.6797 125.981 41.2734C125.981 42.9036 126.369 44.1693 127.145 45.0703C127.921 45.9714 129.031 46.4219 130.473 46.4219C131.432 46.4219 132.312 46.2995 133.114 46.0547V46.7578C132.359 47.0234 131.416 47.1562 130.286 47.1562C128.682 47.1562 127.419 46.638 126.497 45.6016C125.575 44.5651 125.114 43.1172 125.114 41.2578C125.114 40.0964 125.333 39.0729 125.77 38.1875C126.213 37.3021 126.846 36.6198 127.669 36.1406C128.497 35.6562 129.458 35.4141 130.552 35.4141C131.666 35.4141 132.664 35.6224 133.544 36.0391L133.223 36.7578C132.39 36.3411 131.515 36.1328 130.598 36.1328ZM146.863 41.2734C146.863 43.0859 146.409 44.5208 145.503 45.5781C144.597 46.6302 143.347 47.1562 141.753 47.1562C140.165 47.1562 138.917 46.6302 138.011 45.5781C137.105 44.5208 136.652 43.0807 136.652 41.2578C136.652 39.4401 137.107 38.0104 138.019 36.9688C138.935 35.9219 140.185 35.3984 141.769 35.3984C143.363 35.3984 144.61 35.9245 145.511 36.9766C146.412 38.0234 146.863 39.4557 146.863 41.2734ZM137.519 41.2734C137.519 42.9089 137.883 44.1745 138.613 45.0703C139.342 45.9609 140.389 46.4062 141.753 46.4062C143.128 46.4062 144.178 45.9635 144.902 45.0781C145.631 44.1927 145.995 42.9245 145.995 41.2734C145.995 39.6276 145.631 38.3672 144.902 37.4922C144.178 36.612 143.133 36.1719 141.769 36.1719C140.409 36.1719 139.36 36.6146 138.62 37.5C137.886 38.3854 137.519 39.6432 137.519 41.2734ZM160.197 47H159.541L157.033 38.1875C156.824 37.4635 156.668 36.8698 156.564 36.4062C156.481 36.8594 156.361 37.3802 156.205 37.9688C156.054 38.5573 155.215 41.5677 153.689 47H153.017L149.877 35.5781H150.712L152.712 42.9375C152.791 43.2344 152.864 43.5104 152.931 43.7656C152.999 44.0156 153.059 44.2526 153.111 44.4766C153.168 44.6953 153.218 44.9089 153.259 45.1172C153.306 45.3203 153.348 45.526 153.384 45.7344C153.509 45.026 153.775 43.9505 154.181 42.5078L156.134 35.5781H157.017L159.306 43.5312C159.572 44.4479 159.762 45.1875 159.877 45.75C159.944 45.375 160.03 44.9766 160.134 44.5547C160.244 44.1328 161.048 41.1406 162.548 35.5781H163.353L160.197 47Z" fill="#585858"/>
</svg>
