<svg width="37" height="25" viewBox="0 0 37 25" fill="none" xmlns="http://www.w3.org/2000/svg">
<g clip-path="url(#clip0)">
<path d="M18.8993 12.0016L7.10591 0.208257C6.82823 -0.069419 6.38291 -0.069419 6.10523 0.208257C5.82755 0.485933 5.82755 0.931262 6.10523 1.20894L17.3956 12.4993L6.10523 23.7898C5.82755 24.0674 5.82755 24.5128 6.10523 24.7904C6.24145 24.9267 6.42482 25 6.60295 25C6.78108 25 6.96445 24.9319 7.10067 24.7904L18.894 12.9971C19.1717 12.7246 19.1717 12.2741 18.8993 12.0016Z" fill="#F6F6F6"/>
</g>
<g clip-path="url(#clip1)">
<path d="M18.1007 12.9984L29.8941 24.7917C30.1718 25.0694 30.6171 25.0694 30.8948 24.7917C31.1724 24.5141 31.1724 24.0687 30.8948 23.7911L19.6044 12.5007L30.8948 1.21025C31.1724 0.932571 31.1724 0.487242 30.8948 0.209566C30.7585 0.073349 30.5752 4.61458e-08 30.397 6.17186e-08C30.2189 7.72913e-08 30.0355 0.0681096 29.8993 0.209566L18.106 12.0029C17.8283 12.2754 17.8283 12.7259 18.1007 12.9984Z" fill="#F6F6F6"/>
</g>
<defs>
<clipPath id="clip0">
<rect width="25" height="25" fill="white"/>
</clipPath>
<clipPath id="clip1">
<rect width="25" height="25" fill="white" transform="translate(37 25) rotate(180)"/>
</clipPath>
</defs>
</svg>
